<svg width="23" height="26" viewBox="0 0 23 26" fill="none" xmlns="http://www.w3.org/2000/svg">
<path d="M19.9577 15.9878L22.4793 15.9878L22.4793 13.8941L15.1904 13.8941C15.0578 16.0665 13.2336 17.7902 11.0037 17.7902C8.77377 17.7902 6.94955 16.0665 6.81697 13.8941L2.88995e-06 13.8941L2.70692e-06 15.9878L2.08142 15.9878C2.19278 16.4181 2.33861 16.8405 2.51361 17.255C2.71247 17.722 2.94846 18.168 3.22156 18.5904L1.39999 20.3929L4.26889 23.2317L6.09312 21.4266C6.5147 21.6916 6.96015 21.9225 7.42416 22.1166C7.94651 22.3344 8.48476 22.5049 9.03362 22.623L9.03362 25.1338L13.0957 25.1338L13.0957 22.602C13.6127 22.4839 14.1192 22.3213 14.6123 22.1166C15.1108 21.9093 15.5854 21.6601 16.0335 21.3715L17.8259 23.1451L20.6975 20.3037L18.8759 18.5012C19.1252 18.1051 19.3399 17.6879 19.5255 17.255C19.7005 16.8405 19.8464 16.4181 19.9577 15.9878Z" fill="#FFB342"/>
<path d="M18.8742 4.78502V9.01265C18.8742 9.29954 18.6372 9.5323 18.345 9.5323H17.9702C17.678 9.5323 17.441 9.29954 17.441 9.01265V3.68616C16.3551 2.97705 15.1369 2.44657 13.8304 2.14343V9.47817C13.8304 9.76507 13.5934 9.99783 13.3013 9.99783H9.16701C8.87486 9.99783 8.63783 9.76507 8.63783 9.47817V2.14343C7.34795 2.44657 6.12972 2.98246 5.04379 3.68616V9.01265C5.04379 9.29954 4.80676 9.5323 4.51461 9.5323H4.13977C3.84762 9.5323 3.61059 9.29954 3.61059 9.01265V4.78502C1.39463 6.79869 1.52588e-05 9.67304 1.52588e-05 12.8722H22.4793C22.4848 9.67304 21.0957 6.79869 18.8742 4.78502Z" fill="#FFB342"/>
<path d="M12.7723 8.60296C12.7723 8.84489 12.595 9.0405 12.372 9.0405H10.1073C9.88998 9.0405 9.70698 8.84489 9.70698 8.60296V1.30375C9.70698 1.06182 9.88427 0.866211 10.1073 0.866211H12.372C12.5893 0.866211 12.7723 1.06182 12.7723 1.30375V8.60296Z" fill="#FFB342"/>
</svg>
