<svg width="46" height="46" viewBox="0 0 46 46" fill="none" xmlns="http://www.w3.org/2000/svg">
<path d="M23 0.510742C10.298 0.510742 0 10.5849 0 23.0107C0 35.4366 10.298 45.5107 23 45.5107C35.702 45.5107 46 35.4366 46 23.0107C46 10.5849 35.702 0.510742 23 0.510742ZM33.6154 26.4723H23C22.5308 26.4723 22.0808 26.2899 21.749 25.9654C21.4172 25.6408 21.2308 25.2005 21.2308 24.7415V9.16459C21.2308 8.70556 21.4172 8.26533 21.749 7.94075C22.0808 7.61617 22.5308 7.43382 23 7.43382C23.4692 7.43382 23.9192 7.61617 24.251 7.94075C24.5828 8.26533 24.7692 8.70556 24.7692 9.16459V23.0107H33.6154C34.0846 23.0107 34.5346 23.1931 34.8664 23.5177C35.1982 23.8423 35.3846 24.2825 35.3846 24.7415C35.3846 25.2005 35.1982 25.6408 34.8664 25.9654C34.5346 26.2899 34.0846 26.4723 33.6154 26.4723Z" fill="#1C2752"/>
</svg>
