<svg width="38" height="43" viewBox="0 0 38 43" fill="none" xmlns="http://www.w3.org/2000/svg">
<path d="M26.0006 3.5651C24.223 1.59542 21.7403 0.510742 19 0.510742C16.2451 0.510742 13.7541 1.58886 11.9848 3.54635C10.1963 5.5254 9.32488 8.21507 9.52949 11.1194C9.93506 16.8494 14.1834 21.5106 19 21.5106C23.8165 21.5106 28.0576 16.8503 28.4696 11.1213C28.6769 8.2432 27.8 5.55915 26.0006 3.5651ZM35.0765 42.5105H2.92352C2.50267 42.5161 2.08589 42.4254 1.7035 42.2449C1.32112 42.0644 0.982743 41.7987 0.713003 41.4671C0.119269 40.7386 -0.120051 39.7439 0.0571555 38.738C0.828096 34.3487 3.23409 30.6615 7.01571 28.0731C10.3753 25.7753 14.631 24.5106 19 24.5106C23.369 24.5106 27.6247 25.7762 30.9843 28.0731C34.7659 30.6606 37.1719 34.3477 37.9428 38.7371C38.12 39.743 37.8807 40.7377 37.287 41.4661C37.0173 41.7979 36.679 42.0638 36.2966 42.2444C35.9142 42.4251 35.4974 42.516 35.0765 42.5105Z" fill="#1C2752"/>
</svg>
