<svg width="241" height="48" viewBox="0 0 241 48" fill="none" xmlns="http://www.w3.org/2000/svg">
<g id="LOGO">
<g id="Logo">
<path id="Vector" d="M39.0644 29.598L44 29.598L44 25.5L29.733 25.5C29.4735 29.7521 25.9028 33.126 21.5381 33.126C17.1734 33.126 13.6027 29.7521 13.3433 25.5L5.738e-06 25.5L5.37974e-06 29.598L4.07408 29.598C4.29205 30.4402 4.5775 31.267 4.92003 32.0784C5.30927 32.9925 5.77118 33.8655 6.30574 34.6923L2.74027 38.2203L8.35575 43.7768L11.9264 40.2437C12.7516 40.7624 13.6235 41.2143 14.5317 41.5943C15.5542 42.0205 16.6077 42.3543 17.682 42.5854L17.682 47.5L25.6329 47.5L25.6329 42.5443C26.645 42.3133 27.6363 41.9949 28.6016 41.5943C29.5773 41.1886 30.5063 40.7007 31.3834 40.1359L34.8917 43.6074L40.5124 38.0457L36.9469 34.5177C37.4348 33.7423 37.8552 32.9258 38.2185 32.0784C38.561 31.267 38.8464 30.4402 39.0644 29.598Z" fill="#1C2752"/>
<path id="Vector_2" d="M36.9436 7.67054V15.9455C36.9436 16.5071 36.4796 16.9627 35.9078 16.9627H35.1741C34.6023 16.9627 34.1383 16.5071 34.1383 15.9455V5.51968C32.0128 4.13169 29.6282 3.09334 27.0711 2.5V16.8567C27.0711 17.4183 26.6072 17.8739 26.0353 17.8739H17.9431C17.3713 17.8739 16.9073 17.4183 16.9073 16.8567V2.5C14.3826 3.09334 11.9981 4.14228 9.8725 5.51968V15.9455C9.8725 16.5071 9.40855 16.9627 8.8367 16.9627H8.10301C7.53116 16.9627 7.06721 16.5071 7.06721 15.9455V7.67054C2.72979 11.612 2.28882e-05 17.2381 2.28882e-05 23.5H44C44.0108 17.2381 41.2918 11.612 36.9436 7.67054Z" fill="#FFB342"/>
<path id="Vector_3" d="M25 15.1436C25 15.6171 24.653 16 24.2164 16H19.7836C19.3582 16 19 15.6171 19 15.1436V0.856423C19 0.382871 19.347 0 19.7836 0H24.2164C24.6418 0 25 0.382871 25 0.856423V15.1436Z" fill="#FFB342"/>
</g>
<g id="Khedmlli">
<path d="M56.52 35.25V10.575H61.98V21.32H62.05L72.165 10.575H78.64L66.215 23.49L66.25 21.25L79.41 35.25H72.725L62.05 23.98H61.98V35.25H56.52ZM80.13 35.25V9.49H85.415V20.83H84.89C85.45 19.64 86.2783 18.73 87.375 18.1C88.4717 17.47 89.7317 17.155 91.155 17.155C93.2317 17.155 94.7833 17.7617 95.81 18.975C96.8367 20.165 97.35 21.9967 97.35 24.47V35.25H92.065V24.715C92.065 23.4783 91.8317 22.5917 91.365 22.055C90.9217 21.5183 90.2217 21.25 89.265 21.25C88.0983 21.25 87.165 21.6117 86.465 22.335C85.765 23.0583 85.415 24.0267 85.415 25.24V35.25H80.13ZM110.52 35.635C107.44 35.635 105.036 34.8067 103.31 33.15C101.583 31.4933 100.72 29.2417 100.72 26.395C100.72 24.5517 101.081 22.9417 101.805 21.565C102.551 20.1883 103.578 19.115 104.885 18.345C106.215 17.5517 107.766 17.155 109.54 17.155C111.29 17.155 112.748 17.5283 113.915 18.275C115.105 19.0217 115.991 20.0717 116.575 21.425C117.181 22.755 117.485 24.3067 117.485 26.08V27.305H105.06V24.68H113.635L113.04 25.17C113.04 23.7 112.736 22.5917 112.13 21.845C111.546 21.075 110.695 20.69 109.575 20.69C108.338 20.69 107.381 21.145 106.705 22.055C106.051 22.965 105.725 24.2717 105.725 25.975V26.535C105.725 28.2617 106.145 29.545 106.985 30.385C107.848 31.225 109.085 31.645 110.695 31.645C111.651 31.645 112.55 31.5283 113.39 31.295C114.253 31.0383 115.07 30.6417 115.84 30.105L117.31 33.605C116.423 34.2583 115.396 34.76 114.23 35.11C113.086 35.46 111.85 35.635 110.52 35.635ZM127.803 35.635C126.263 35.635 124.898 35.2617 123.708 34.515C122.541 33.7683 121.62 32.7067 120.943 31.33C120.29 29.9533 119.963 28.2967 119.963 26.36C119.963 24.4467 120.29 22.8017 120.943 21.425C121.596 20.0483 122.518 18.9983 123.708 18.275C124.898 17.5283 126.263 17.155 127.803 17.155C129.203 17.155 130.451 17.4933 131.548 18.17C132.668 18.8233 133.415 19.71 133.788 20.83H133.333V9.49H138.618V35.25H133.403V31.785H133.858C133.485 32.9517 132.738 33.885 131.618 34.585C130.498 35.285 129.226 35.635 127.803 35.635ZM129.378 31.645C130.591 31.645 131.571 31.2133 132.318 30.35C133.065 29.4867 133.438 28.1567 133.438 26.36C133.438 24.5633 133.065 23.245 132.318 22.405C131.571 21.565 130.591 21.145 129.378 21.145C128.165 21.145 127.173 21.565 126.403 22.405C125.656 23.245 125.283 24.5633 125.283 26.36C125.283 28.1567 125.656 29.4867 126.403 30.35C127.173 31.2133 128.165 31.645 129.378 31.645ZM142.952 35.25V22.125C142.952 21.3783 142.929 20.62 142.882 19.85C142.836 19.0567 142.766 18.275 142.672 17.505H147.747L148.132 20.795H147.712C148.226 19.675 148.984 18.7883 149.987 18.135C150.991 17.4817 152.181 17.155 153.557 17.155C154.911 17.155 156.042 17.4817 156.952 18.135C157.886 18.765 158.551 19.7567 158.947 21.11H158.387C158.901 19.8967 159.717 18.94 160.837 18.24C161.957 17.5167 163.229 17.155 164.652 17.155C166.659 17.155 168.152 17.75 169.132 18.94C170.112 20.13 170.602 21.9967 170.602 24.54V35.25H165.317V24.715C165.317 23.4783 165.119 22.5917 164.722 22.055C164.326 21.5183 163.684 21.25 162.797 21.25C161.747 21.25 160.919 21.6233 160.312 22.37C159.706 23.1167 159.402 24.1433 159.402 25.45V35.25H154.117V24.715C154.117 23.4783 153.919 22.5917 153.522 22.055C153.126 21.5183 152.484 21.25 151.597 21.25C150.547 21.25 149.719 21.6233 149.112 22.37C148.529 23.1167 148.237 24.1433 148.237 25.45V35.25H142.952ZM194.051 35.25V17.505H199.336V35.25H194.051ZM193.841 14.6V9.665H199.511V14.6H193.841Z" fill="#1C2752"/>
<path d="M174.842 35.25V9.49H180.127V35.25H174.842ZM184.446 35.25V9.49H189.731V35.25H184.446Z" fill="#FFB342"/>
</g>
</g>
</svg>
